Coordinates
version=1
nRows=26
nColumns=18
inDegrees=yes

Units are S.I. units (second, meters, Newtons, ...)
If the header above contains a line with 'inDegrees', this indicates whether rotational values are in degrees (yes) or radians (no).

endheader
time	ground_thorax_rot_x	ground_thorax_rot_y	ground_thorax_rot_z	ground_thorax_tx	ground_thorax_ty	ground_thorax_tz	clav_prot	clav_elev	scapula_abduction	scapula_elevation	scapula_upward_rot	scapula_winging	plane_elv	shoulder_elv	axial_rot	elbow_flexion	pro_sup
      2.11000000	      0.00622703	      2.67728203	     -7.52727988	     -0.00476130	      0.00640144	     -0.00516984	    -38.88782704	      5.01927726	    -21.56200767	     -4.17871507	     42.83690530	     -7.86510384	    -10.84057463	     66.08961704	     -6.58245974	      0.00000000	     34.32000000
      2.12000000	     -0.05943336	      2.66348725	     -7.55005830	     -0.00471407	      0.00640123	     -0.00528210	    -38.93057840	      5.13127355	    -21.37810447	     -4.14636429	     43.21000317	     -7.97858078	    -10.46938451	     66.65895740	     -6.58430136	      0.00000000	     34.32000000
      2.13000000	     -0.08957569	      2.68562774	     -7.56076529	     -0.00468138	      0.00635232	     -0.00533243	    -38.98459935	      5.25174482	    -21.20623014	     -4.10946399	     43.59357649	     -8.10084199	    -10.13169091	     67.24860831	     -6.60117316	      0.00000000	     34.32000000
      2.14000000	     -0.19702226	      2.75431599	     -7.53047273	     -0.00470033	      0.00634266	     -0.00538857	    -39.05783298	      5.26200151	    -21.02356405	     -4.15005043	     43.97981257	     -8.19629242	     -9.85489217	     67.78223169	     -6.59724240	      0.00000000	     34.32000000
      2.15000000	     -0.17573417	      2.82034081	     -7.55701611	     -0.00470580	      0.00629071	     -0.00543250	    -39.10280521	      5.26942469	    -20.79930313	     -4.18899176	     44.36111157	     -8.27572637	     -9.55821754	     68.47022091	     -6.57580016	      0.00000000	     34.32000000
      2.16000000	     -0.19946223	      2.84855604	     -7.58022347	     -0.00469787	      0.00626442	     -0.00557265	    -39.13647959	      5.26447618	    -20.56037611	     -4.23376940	     44.73272554	     -8.34333130	     -9.25793867	     69.12633119	     -6.55720724	      0.00000000	     34.32000000
      2.17000000	     -0.30297443	      2.81701933	     -7.61770254	     -0.00462838	      0.00625153	     -0.00576735	    -39.16364118	      5.34623793	    -20.38446691	     -4.21146630	     45.04832255	     -8.42703377	     -8.93611040	     69.68544493	     -6.56885402	      0.00000000	     34.32000000
      2.18000000	     -0.34837827	      2.72971197	     -7.62513314	     -0.00452304	      0.00627715	     -0.00588990	    -39.18356628	      5.62221568	    -20.28975424	     -4.05031055	     45.33091969	     -8.56396590	     -8.51001054	     70.22900745	     -6.67872173	      0.00000000	     34.32000000
      2.19000000	     -0.32952468	      2.77650083	     -7.56674464	     -0.00454618	      0.00623495	     -0.00591536	    -39.30913657	      6.08371356	    -20.33956546	     -3.77998920	     45.72430321	     -8.82218078	     -8.06512618	     70.69215531	     -7.36235159	      0.00000000	     34.32000000
      2.20000000	     -0.46667771	      2.77136333	     -7.55278474	     -0.00465291	      0.00634108	     -0.00597920	    -39.37069387	      6.12463213	    -20.17700774	     -3.79024506	     46.07215632	     -8.91179424	     -7.79230495	     71.23477368	     -7.37816934	      0.00000000	     34.32000000
      2.21000000	     -0.50378380	      2.67714230	     -7.59840528	     -0.00469156	      0.00631048	     -0.00597442	    -39.38922819	      6.19297768	    -19.93732120	     -3.77976276	     46.44427219	     -8.99107316	     -7.49121862	     71.87417465	     -7.39271695	      0.00000000	     34.32000000
      2.22000000	     -0.59895006	      2.21716065	     -7.59426978	     -0.00455241	      0.00622659	     -0.00603801	    -39.07840086	      6.31561123	    -19.15609797	     -3.71003826	     46.87006157	     -8.93225183	     -7.50361116	     72.59028024	     -7.87965091	      0.00000000	     34.32000000
      2.23000000	     -0.74242618	      2.20916287	     -7.62060718	     -0.00451307	      0.00622844	     -0.00629593	    -39.16576020	      6.36864267	    -19.03706967	     -3.71179263	     47.21833819	     -9.03479611	     -7.16228608	     73.09195116	     -7.89901163	      0.00000000	     34.32000000
      2.24000000	     -0.85039721	      2.15531948	     -7.64510639	     -0.00442552	      0.00623741	     -0.00649911	    -39.23907118	      6.45941430	    -18.95551144	     -3.68061447	     47.50781140	     -9.13389196	     -6.75940393	     73.55710844	     -7.93152874	      0.00000000	     34.32000000
      2.25000000	     -0.85076583	      2.01936374	     -7.71012951	     -0.00432677	      0.00618472	     -0.00654415	    -39.28621332	      6.66264285	    -18.93266552	     -3.56298066	     47.72117639	     -9.24386341	     -6.18887175	     74.04325667	     -8.01884862	      0.00000000	     34.32000000
      2.26000000	     -0.94996453	      1.98207887	     -7.68081867	     -0.00434766	      0.00624280	     -0.00665316	    -39.35141646	      6.82879129	    -18.87251300	     -3.47781948	     48.00108679	     -9.35891565	     -5.79705722	     74.46895890	     -8.09298716	      0.00000000	     34.32000000
      2.27000000	     -1.01538945	      1.97874399	     -7.67445615	     -0.00439951	      0.00624936	     -0.00668280	    -39.41965395	      6.99228189	    -18.77200089	     -3.39901317	     48.33659980	     -9.48044837	     -5.50092839	     74.94708224	     -8.15222163	      0.00000000	     34.32000000
      2.28000000	     -1.07094524	      1.98408933	     -7.65129164	     -0.00446738	      0.00626502	     -0.00667032	    -39.48728610	      7.09217933	    -18.64487738	     -3.36355028	     48.67553605	     -9.58267559	     -5.24988303	     75.44553019	     -8.18233023	      0.00000000	     34.32000000
      2.29000000	     -1.02770645	      1.94027504	     -7.67068079	     -0.00449341	      0.00626246	     -0.00658482	    -39.52492502	      7.20785189	    -18.52619875	     -3.30927913	     48.95132039	     -9.66645195	     -4.96354409	     76.01500909	     -8.20308698	      0.00000000	     34.32000000
      2.30000000	     -0.95331257	      1.81325218	     -7.69215980	     -0.00445392	      0.00621653	     -0.00646492	    -39.49061789	      7.44200626	    -18.47016921	     -3.15461107	     49.05974968	     -9.72816644	     -4.58312399	     76.58274851	     -8.26404559	      0.00000000	     34.32000000
      2.31000000	     -1.21166921	      1.80123938	     -7.78003287	     -0.00437199	      0.00609575	     -0.00677682	    -39.52019972	      7.53140342	    -18.44632288	     -3.10584391	     49.18882301	     -9.78263929	     -4.48255319	     76.75543581	     -8.26095462	      0.00000000	     34.32000000
      2.32000000	     -1.18225552	      1.61612276	     -7.78688887	     -0.00413709	      0.00614037	     -0.00706543	    -39.57884122	      7.63958428	    -18.45384036	     -3.04853208	     49.34463888	     -9.85973231	     -3.80419301	     77.33912473	     -8.32745368	      0.00000000	     34.32000000
      2.33000000	     -1.34581872	      1.45069967	     -7.81057621	     -0.00400521	      0.00603528	     -0.00743087	    -39.68778676	      7.67827770	    -18.47969361	     -3.04606980	     49.54505312	     -9.94774691	     -3.32196107	     77.75599545	     -8.37758871	      0.00000000	     34.32000000
      2.34000000	     -1.40590609	      1.13491167	     -7.90419794	     -0.00401032	      0.00594361	     -0.00727122	    -39.83637063	      7.74373525	    -18.53813146	     -3.03191986	     49.79486562	    -10.06881774	     -2.87938649	     78.32010036	     -8.41739048	      0.00000000	     34.32000000
      2.35000000	     -1.45087217	      0.79353453	     -7.85175516	     -0.00431417	      0.00605880	     -0.00675517	    -40.01248491	      7.85234777	    -18.53502834	     -3.00106255	     50.19534346	    -10.23203277	     -2.65654254	     78.97823060	     -8.43791363	      0.00000000	     34.32000000
      2.36000000	     -1.39159124	      0.42865160	     -7.77412357	     -0.00466117	      0.00624146	     -0.00607969	    -40.17913166	      8.06295310	    -18.43148949	     -2.90959385	     50.74895893	    -10.43343989	     -2.61126152	     79.74114052	     -8.46691959	      0.00000000	     34.32000000
